<?xml version="1.0" encoding="UTF-8"?>
<svg version="1.1" xmlns="http://www.w3.org/2000/svg" width="407" height="310">
<path d="M0 0 C0 86.46 0 172.92 0 262 C-3.53301043 260.23349478 -5.16879861 259.06128708 -7.828125 256.33203125 C-8.54613281 255.60306641 -9.26414062 254.87410156 -10.00390625 254.12304688 C-10.74511719 253.36056641 -11.48632812 252.59808594 -12.25 251.8125 C-18.28555662 245.61288387 -18.28555662 245.61288387 -24.69140625 239.8046875 C-31.04044986 234.35134333 -36.80674097 228.25941462 -42.6875 222.3125 C-45.08429198 219.88898154 -47.48447435 217.46889389 -49.88671875 215.05078125 C-50.42640793 214.50279373 -50.96609711 213.95480621 -51.5221405 213.39021301 C-53.8987457 210.99834528 -56.21740878 208.83003256 -58.88208008 206.74682617 C-59.93045044 205.88214722 -59.93045044 205.88214722 -61 205 C-61 204.34 -61 203.68 -61 203 C-61.66 203 -62.32 203 -63 203 C-63 202.34 -63 201.68 -63 201 C-63.79712402 200.69292114 -63.79712402 200.69292114 -64.61035156 200.37963867 C-67.9981 198.42375735 -70.52262631 195.70193361 -73.234375 192.92578125 C-73.83123108 192.3237236 -74.42808716 191.72166595 -75.04302979 191.10136414 C-76.95017565 189.17644085 -78.85052066 187.24498653 -80.75 185.3125 C-83.24138018 182.78436908 -85.73594605 180.25944662 -88.234375 177.73828125 C-88.83487671 177.13219025 -89.43537842 176.52609924 -90.05407715 175.90164185 C-93.65128737 172.29211926 -97.33047995 168.85131244 -101.21972656 165.55541992 C-105.36917021 161.93006261 -109.14393358 157.89231772 -113 153.9609375 C-116.92544304 149.98949317 -120.95065149 146.21886096 -125.17919922 142.57177734 C-127.53055047 140.54201074 -129.8165615 138.45827657 -132.0625 136.3125 C-133.22458984 135.22388672 -133.22458984 135.22388672 -134.41015625 134.11328125 C-136 132 -136 132 -136.03125 130.03125 C-134.6016589 127.21538875 -132.70332014 125.3841348 -130.4375 123.1875 C-129.19806641 121.97126953 -129.19806641 121.97126953 -127.93359375 120.73046875 C-125.79551285 118.70314597 -123.58563077 116.7793436 -121.34765625 114.86328125 C-115.96420438 110.18331619 -111.00468054 105.07612737 -106 100 C-100.5005508 94.42204065 -95.00382232 88.92119071 -89.04589844 83.82763672 C-83.73895238 79.08684935 -78.86519068 73.85557072 -73.89453125 68.76757812 C-72.60482422 67.46143555 -72.60482422 67.46143555 -71.2890625 66.12890625 C-70.51256348 65.33556885 -69.73606445 64.54223145 -68.93603516 63.72485352 C-67 62 -67 62 -65 62 C-64.77183594 61.43410156 -64.54367188 60.86820313 -64.30859375 60.28515625 C-62.63811982 57.36805998 -60.59727776 55.65231984 -58.0625 53.4375 C-51.17613463 47.33123926 -44.75061289 40.78382535 -38.32446289 34.19897461 C-37.53418701 33.3972583 -36.74391113 32.59554199 -35.9296875 31.76953125 C-35.22054199 31.04354736 -34.51139648 30.31756348 -33.78076172 29.56958008 C-32 28 -32 28 -30 28 C-30 27.34 -30 26.68 -30 26 C-28.671875 24.6953125 -28.671875 24.6953125 -26.75 23.125 C-22.23434706 19.31340047 -18.13057084 15.16752273 -14.03808594 10.91259766 C-12.72804226 9.57225655 -11.36771234 8.28144125 -10 7 C-9.34 7 -8.68 7 -8 7 C-7.7525 6.401875 -7.505 5.80375 -7.25 5.1875 C-5.55294333 2.21765083 -3.56508774 0 0 0 Z " fill="#532F36" transform="translate(254,37)"/>
<path d="M0 0 C1.28265266 5.93901598 1.17983778 11.85319748 1.203125 17.8984375 C1.20882507 19.04736481 1.21452515 20.19629211 1.22039795 21.3800354 C1.22982494 23.80575648 1.23637276 26.23149024 1.24023438 28.65722656 C1.24994759 32.35504583 1.28099679 36.05231082 1.3125 39.75 C1.31903005 42.11197588 1.32428051 44.47395572 1.328125 46.8359375 C1.3404718 47.93513519 1.3528186 49.03433289 1.36553955 50.1668396 C1.33371003 61.20901255 -1.67804409 67.64974309 -9.46435547 75.49414062 C-13.18869594 79.14624429 -17.00717595 82.6990764 -20.8347168 86.24243164 C-25.32418324 90.4010566 -29.70134955 94.64476327 -34 99 C-37.87244301 102.91967503 -41.80861239 106.67888701 -46.01953125 110.234375 C-49.48947379 113.3278938 -52.67561807 116.71105221 -55.8984375 120.05859375 C-58 122 -58 122 -60 122 C-60.28875 122.5775 -60.5775 123.155 -60.875 123.75 C-61.91666667 125.83333333 -62.95833333 127.91666667 -64 130 C-59.08585994 135.76733662 -53.93367944 141.22032783 -48.5625 146.5625 C-47.85029297 147.27857422 -47.13808594 147.99464844 -46.40429688 148.73242188 C-42.34099486 152.78834278 -38.17198341 156.64640943 -33.82397461 160.39428711 C-31.2575967 162.65356532 -28.8890483 165.05338427 -26.5 167.5 C-23.4285016 170.61803626 -20.33278094 173.65894084 -17 176.5 C0.33386221 191.54178126 0.33386221 191.54178126 2 202 C2.36685697 207.24716639 2.28193836 212.41855502 2.10302734 217.67236328 C2.00147032 220.95251067 1.93429906 224.23166989 1.87535095 227.51278687 C1.81702286 230.68814417 1.74841282 233.86322938 1.67758179 237.03833008 C1.64262463 238.63333418 1.60991743 240.22838923 1.57949829 241.82348633 C1.53400261 244.08970845 1.47569166 246.35525993 1.4140625 248.62109375 C1.40248611 249.30578232 1.39090973 249.99047089 1.37898254 250.69590759 C1.26791007 254.27663516 0.93438844 256.94424804 -1 260 C-2.66015381 258.57701102 -4.31975301 257.15344741 -5.9765625 255.7265625 C-7.31528821 254.58425215 -8.6642017 253.45376463 -10.0234375 252.3359375 C-10.65507813 251.81257812 -11.28671875 251.28921875 -11.9375 250.75 C-12.52402344 250.27046875 -13.11054687 249.7909375 -13.71484375 249.296875 C-15 248 -15 248 -15 246 C-15.54946289 245.77723389 -16.09892578 245.55446777 -16.66503906 245.32495117 C-19.70445373 243.60026449 -21.94449385 241.28348674 -24.359375 238.80078125 C-24.8674469 238.28750778 -25.3755188 237.77423431 -25.89898682 237.2454071 C-27.52083649 235.60580301 -29.1358566 233.95968847 -30.75 232.3125 C-32.86632729 230.15931964 -34.98589089 228.00940405 -37.109375 225.86328125 C-37.62383179 225.34323517 -38.13828857 224.82318909 -38.66833496 224.28738403 C-42.03810145 220.90426482 -45.51647891 217.72050727 -49.14941406 214.62573242 C-53.31486941 210.96639639 -57.11967936 206.91704565 -61 202.9609375 C-64.1274055 199.79688271 -67.26582451 196.72579067 -70.65625 193.84375 C-77.58759316 187.8735892 -83.87296336 181.17974495 -90.30029297 174.67919922 C-98.97014941 165.90694467 -98.97014941 165.90694467 -108.12646484 157.65087891 C-111.95747483 154.27515705 -115.48410697 150.57659521 -119.0625 146.9375 C-125.31941106 140.557894 -125.31941106 140.557894 -131.99609375 134.62890625 C-135 132 -135 132 -136 129 C-134.85546875 127.17578125 -134.85546875 127.17578125 -133.1875 125.3125 C-132.64480469 124.68988281 -132.10210937 124.06726563 -131.54296875 123.42578125 C-130 122 -130 122 -128 122 C-128 121.34 -128 120.68 -128 120 C-127.34 120 -126.68 120 -126 120 C-126 119.34 -126 118.68 -126 118 C-124.64453125 116.66796875 -124.64453125 116.66796875 -122.8125 115.1875 C-119.69762705 112.6053518 -116.82624939 109.90062438 -114 107 C-112.33333333 105.33333333 -110.66666667 103.66666667 -109 102 C-107.83686967 100.82588717 -106.67413534 99.65138197 -105.51171875 98.4765625 C-93.7514874 86.62009858 -93.7514874 86.62009858 -87.48828125 81.3359375 C-85.81114101 79.90384335 -85.81114101 79.90384335 -84 77.5 C-82.2775156 75.3468945 -80.71045332 73.82677591 -78.625 72.0625 C-73.91205812 68.04679109 -69.60361759 63.66002561 -65.27587891 59.23852539 C-62.32853289 56.24792252 -59.3361309 53.38674858 -56.1484375 50.65234375 C-50.50450978 45.7829927 -45.3817039 40.39198089 -40.18359375 35.05664062 C-39.41402344 34.27611328 -38.64445312 33.49558594 -37.8515625 32.69140625 C-37.15885254 31.98185791 -36.46614258 31.27230957 -35.75244141 30.54125977 C-34 29 -34 29 -32 29 C-31.7834375 28.44570312 -31.566875 27.89140625 -31.34375 27.3203125 C-29.56937657 24.25642349 -27.13304263 22.17937449 -24.5 19.875 C-19.57463273 15.4742898 -14.86363915 10.92593733 -10.25390625 6.19140625 C-3.885918 0 -3.885918 0 0 0 Z " fill="#E3592E" transform="translate(138,38)"/>
<path d="M0 0 C0.63164062 0.63292969 1.26328125 1.26585938 1.9140625 1.91796875 C4.40194801 4.40672966 6.89987102 6.88524661 9.3984375 9.36328125 C11.05735698 11.01295516 12.71620932 12.66269658 14.375 14.3125 C15.2 15.12912109 16.025 15.94574219 16.875 16.78710938 C21.23798318 21.13277913 25.42568835 25.54836231 29.43652344 30.22045898 C32.44599085 33.64581938 35.77547226 36.73763798 39.05859375 39.8984375 C41 42 41 42 41 44 C41.639375 44.268125 42.27875 44.53625 42.9375 44.8125 C45 46 45 46 46 49 C47.485 49.495 47.485 49.495 49 50 C50.61328125 51.63671875 50.61328125 51.63671875 52.3125 53.6875 C54.57367698 56.3768573 56.8608926 58.86266945 59.4375 61.25 C62 64 62 64 62 68 C60.390625 69.8515625 60.390625 69.8515625 58.25 71.625 C57.20585937 72.51058594 57.20585937 72.51058594 56.140625 73.4140625 C54.15473649 74.88535946 52.24418345 75.97899762 50 77 C50 77.66 50 78.32 50 79 C48.7421875 80.3046875 48.7421875 80.3046875 46.875 81.875 C45.77091797 82.81666016 45.77091797 82.81666016 44.64453125 83.77734375 C43.77183594 84.51082031 42.89914062 85.24429688 42 86 C33.44116015 93.19994594 25.1310561 100.58177708 17.03735352 108.30444336 C13.03379439 112.11921442 8.96674435 115.8307507 4.78173828 119.44604492 C3.60868006 120.46913557 2.45260337 121.51208328 1.31591797 122.57543945 C-2.46376776 126.01392811 -2.46376776 126.01392811 -4.8046875 125.953125 C-8.05660313 124.54126128 -10.35708623 122.17912084 -12.875 119.75 C-13.8919298 118.78508707 -14.9101575 117.82154014 -15.9296875 116.859375 C-16.42952148 116.38435547 -16.92935547 115.90933594 -17.44433594 115.41992188 C-19.04031891 113.96319919 -20.69560953 112.61499109 -22.3828125 111.265625 C-23.24648438 110.51796875 -24.11015625 109.7703125 -25 109 C-25 108.34 -25 107.68 -25 107 C-25.57492187 106.75378906 -26.14984375 106.50757813 -26.7421875 106.25390625 C-29.35639827 104.80206947 -31.06336208 103.09712451 -33.125 100.9375 C-35.77905 98.08428067 -35.77905 98.08428067 -39 96 C-39 95.34 -39 94.68 -39 94 C-39.58265625 93.74605469 -40.1653125 93.49210937 -40.765625 93.23046875 C-43.24188033 91.86679667 -44.80520626 90.35774797 -46.75 88.3125 C-49.4302304 85.55768063 -52.14581567 82.94075141 -55.0625 80.4375 C-58.35914234 77.60718035 -61.41407315 74.61038317 -64.45703125 71.51171875 C-66.1845509 69.81918684 -68.00012772 68.35991315 -70 67 C-68.444754 63.12521567 -66.03600017 60.99475118 -62.9375 58.25 C-61.8478165 57.27340798 -60.75934615 56.29546121 -59.671875 55.31640625 C-59.08212891 54.7867627 -58.49238281 54.25711914 -57.88476562 53.71142578 C-54.44108068 50.58445279 -51.06813506 47.38230167 -47.6875 44.1875 C-40.43736012 37.34853797 -33.16078331 30.53880234 -25.86914062 23.74414062 C-23.92598514 21.93093493 -21.9860898 20.11429417 -20.046875 18.296875 C-13.44073085 12.10948186 -6.82083049 5.95205262 0 0 Z " fill="#532F36" transform="translate(337,102)"/>
<path d="M0 0 C0.66 0.33 1.32 0.66 2 1 C2 1.66 2 2.32 2 3 C1.34 3 0.68 3 0 3 C0 3.99 0 4.98 0 6 C-0.97850195 7.02104551 -1.97980427 8.0206121 -3 9 C-3.33 9.99 -3.66 10.98 -4 12 C-5.85546875 12.95703125 -5.85546875 12.95703125 -8.1875 13.8125 C-14.02579553 16.25363152 -17.77290107 19.33239363 -20.4375 25.125 C-22.88916879 29.63607058 -26.64076001 31.06872106 -31.375 32.9375 C-31.91125 33.288125 -32.4475 33.63875 -33 34 C-33.2165625 35.11375 -33.2165625 35.11375 -33.4375 36.25 C-34.47945398 41.34399723 -37.92373148 44.2751661 -42.0625 47.0625 C-43.031875 47.701875 -44.00125 48.34125 -45 49 C-47.32277416 51.6091387 -47.32277416 51.6091387 -49 54 C-48.34 54.33 -47.68 54.66 -47 55 C-46.34 55.99 -45.68 56.98 -45 58 C-44.525625 58.61875 -44.05125 59.2375 -43.5625 59.875 C-42 62 -42 62 -40.6875 64.4375 C-38.57563311 67.64440898 -35.99907885 69.62572924 -33 72 C-30.93906485 73.89606034 -29.20620823 75.96038905 -27.4375 78.125 C-25.32087701 81.00332155 -25.32087701 81.00332155 -23 82 C-23 82.66 -23 83.32 -23 84 C-22.34 84 -21.68 84 -21 84 C-21 84.66 -21 85.32 -21 86 C-20.319375 86.165 -19.63875 86.33 -18.9375 86.5 C-15.30392425 88.35544294 -13.4823264 90.73092555 -10.90234375 93.8359375 C-8.42064947 96.65905584 -5.66762809 99.03985715 -2.796875 101.45703125 C-1 103 -1 103 0.546875 104.69921875 C2.04749489 106.33348524 2.04749489 106.33348524 5 106 C5.4125 106.969375 5.825 107.93875 6.25 108.9375 C7.64899168 112.12260099 7.64899168 112.12260099 10.1875 112.875 C10.785625 112.91625 11.38375 112.9575 12 113 C12.12375 113.804375 12.2475 114.60875 12.375 115.4375 C12.684375 116.7059375 12.684375 116.7059375 13 118 C13.66 118.33 14.32 118.66 15 119 C15 119.66 15 120.32 15 121 C12.10490816 119.69056896 10.05407463 118.29733499 7.82714844 116.03833008 C6.93536896 115.14148247 6.93536896 115.14148247 6.02557373 114.22651672 C5.07705536 113.25780891 5.07705536 113.25780891 4.109375 112.26953125 C3.11420868 111.26656258 3.11420868 111.26656258 2.09893799 110.24333191 C-0.02218406 108.10441918 -2.13652168 105.9589638 -4.25 103.8125 C-6.34999707 101.68471241 -8.45149132 99.55846171 -10.55609131 97.43522644 C-11.86352544 96.11572591 -13.16828143 94.79356395 -14.4697876 93.46821594 C-18.24028496 89.65715912 -22.142383 86.07579569 -26.20059204 82.57331848 C-28.38376263 80.66445584 -30.44008331 78.65773593 -32.47265625 76.58984375 C-33.22740234 75.82736328 -33.98214844 75.06488281 -34.75976562 74.27929688 C-35.51966797 73.50650391 -36.27957031 72.73371094 -37.0625 71.9375 C-43.31941106 65.557894 -43.31941106 65.557894 -49.99609375 59.62890625 C-53 57 -53 57 -54 54 C-52.85546875 52.17578125 -52.85546875 52.17578125 -51.1875 50.3125 C-50.64480469 49.68988281 -50.10210937 49.06726563 -49.54296875 48.42578125 C-48 47 -48 47 -46 47 C-46 46.34 -46 45.68 -46 45 C-45.34 45 -44.68 45 -44 45 C-44 44.34 -44 43.68 -44 43 C-42.64453125 41.66796875 -42.64453125 41.66796875 -40.8125 40.1875 C-37.69762705 37.6053518 -34.82624939 34.90062438 -32 32 C-30.33333333 30.33333333 -28.66666667 28.66666667 -27 27 C-25.83686967 25.82588717 -24.67413534 24.65138197 -23.51171875 23.4765625 C-11.73680706 11.60529811 -11.73680706 11.60529811 -5.51953125 6.36328125 C-3.39340121 4.45577641 -1.67615617 2.30471473 0 0 Z " fill="#BF5D42" transform="translate(56,113)"/>
<path d="M0 0 C2.3646232 1.97051933 4.68916553 3.96768419 7 6 C8.04220703 6.88751953 8.04220703 6.88751953 9.10546875 7.79296875 C15.7346638 13.82516312 18.61511092 19.71753685 19.26953125 28.69921875 C19.35682209 32.69488661 19.2390206 36.67885588 19.10302734 40.67236328 C19.00147032 43.95251067 18.93429906 47.23166989 18.87535095 50.51278687 C18.81702286 53.68814417 18.74841282 56.86322938 18.67758179 60.03833008 C18.64262463 61.63333418 18.60991743 63.22838923 18.57949829 64.82348633 C18.53400261 67.08970845 18.47569166 69.35525993 18.4140625 71.62109375 C18.40248611 72.30578232 18.39090973 72.99047089 18.37898254 73.69590759 C18.26791007 77.27663516 17.93438844 79.94424804 16 83 C15.01 82.01 14.02 81.02 13 80 C13.99 80 14.98 80 16 80 C15.98510223 72.14987571 15.9434072 64.30038549 15.86790943 56.45063591 C15.83368167 52.80522379 15.80853618 49.16022883 15.80444336 45.51464844 C15.80015108 41.99347619 15.77161415 38.47324428 15.72656822 34.95236588 C15.70734078 32.96173318 15.71294162 30.97091058 15.71894836 28.98019409 C15.78263188 21.60770514 15.78263188 21.60770514 12.64331055 15.19189453 C10.13723614 12.84455935 10.13723614 12.84455935 7 12 C6.67 11.01 6.34 10.02 6 9 C5.01 8.67 4.02 8.34 3 8 C1.76132839 5.38502661 0.91496017 2.74488051 0 0 Z " fill="#AD604B" transform="translate(121,215)"/>
<path d="M0 0 C1.28265266 5.93901598 1.17983778 11.85319748 1.203125 17.8984375 C1.20882507 19.04736481 1.21452515 20.19629211 1.22039795 21.3800354 C1.22982494 23.80575648 1.23637276 26.23149024 1.24023438 28.65722656 C1.24994759 32.35504583 1.28099679 36.05231082 1.3125 39.75 C1.31903005 42.11197588 1.32428051 44.47395572 1.328125 46.8359375 C1.3404718 47.93513519 1.3528186 49.03433289 1.36553955 50.1668396 C1.34152064 58.49938579 0.27496209 65.17323214 -5.625 71.5 C-6.23601562 72.1703125 -6.84703125 72.840625 -7.4765625 73.53125 C-9 75 -9 75 -10 75 C-10 73.02 -10 71.04 -10 69 C-8.68 69.33 -7.36 69.66 -6 70 C-5.87625 68.88625 -5.7525 67.7725 -5.625 66.625 C-5 63 -5 63 -3 61 C-2.13796771 57.12395202 -1.87699786 53.41489448 -1.88647461 49.45361328 C-1.88655014 48.39296661 -1.88662567 47.33231995 -1.88670349 46.23953247 C-1.89186478 45.11118988 -1.89702606 43.98284729 -1.90234375 42.8203125 C-1.90446617 41.06846146 -1.90446617 41.06846146 -1.90663147 39.28121948 C-1.91221502 35.56245326 -1.92476456 31.84374793 -1.9375 28.125 C-1.94251712 25.5989592 -1.94707966 23.07291746 -1.95117188 20.546875 C-1.96217907 14.36456267 -1.97890087 8.18228569 -2 2 C-2.99 2.99 -3.98 3.98 -5 5 C-5.66 4.67 -6.32 4.34 -7 4 C-3.375 0 -3.375 0 0 0 Z " fill="#BA6042" transform="translate(138,38)"/>
<path d="M0 0 C0.66 0.33 1.32 0.66 2 1 C2 1.66 2 2.32 2 3 C1.34 3 0.68 3 0 3 C0 3.99 0 4.98 0 6 C-0.97850195 7.02104551 -1.97980427 8.0206121 -3 9 C-3.33 9.99 -3.66 10.98 -4 12 C-5.85546875 12.95703125 -5.85546875 12.95703125 -8.1875 13.8125 C-14.02579553 16.25363152 -17.77290107 19.33239363 -20.4375 25.125 C-22.18184552 28.33459576 -23.86452995 29.36237974 -27.08203125 30.98828125 C-30.28036886 32.67538806 -33.08968695 34.86181082 -36 37 C-34.6656304 33.9518812 -33.33230023 32.20206757 -30.75 30.125 C-26.60255973 26.62843539 -22.80696561 22.85701734 -19 19 C-14.65919676 14.60684941 -10.27390507 10.38850557 -5.5546875 6.3984375 C-3.41808206 4.47656628 -1.6866778 2.31918197 0 0 Z " fill="#BA6F50" transform="translate(56,113)"/>
<path d="M0 0 C1.33333333 0.66666667 2.66666667 1.33333333 4 2 C4.99 2.4125 5.98 2.825 7 3.25 C10.56764027 5.33112349 11.78305712 7.56731424 14 11 C15.65948148 12.01187895 17.32580562 13.0126546 19 14 C19.680625 15.1446875 19.680625 15.1446875 20.375 16.3125 C23.09665348 20.81369614 26.99234817 24.33078272 32 26 C32 26.99 32 27.98 32 29 C32.99 29.33 33.98 29.66 35 30 C38 33.44444444 38 33.44444444 38 36 C34.10568195 34.42114525 31.51801213 31.75898265 28.640625 28.80078125 C28.1325531 28.28750778 27.6244812 27.77423431 27.10101318 27.2454071 C25.47916351 25.60580301 23.8641434 23.95968847 22.25 22.3125 C20.13367256 20.1593195 18.0139328 18.00957844 15.890625 15.86328125 C15.3805188 15.34686066 14.8704126 14.83044006 14.34484863 14.29837036 C10.87730984 10.81306552 7.30147853 7.5251648 3.51464844 4.39135742 C2 3 2 3 0 0 Z " fill="#BC5F45" transform="translate(85,248)"/>
<path d="M0 0 C0.33 0.66 0.66 1.32 1 2 C0.67 2.99 0.34 3.98 0 5 C-0.639375 5.144375 -1.27875 5.28875 -1.9375 5.4375 C-4.20311706 5.80104993 -4.20311706 5.80104993 -5.25 8.0625 C-5.4975 8.701875 -5.745 9.34125 -6 10 C-6.66 10 -7.32 10 -8 10 C-8.08378906 10.58265625 -8.16757813 11.1653125 -8.25390625 11.765625 C-9.21726696 14.65066337 -10.62979704 15.79700726 -12.9375 17.75 C-13.64777344 18.36359375 -14.35804687 18.9771875 -15.08984375 19.609375 C-17 21 -17 21 -19 21 C-19.99 23.475 -19.99 23.475 -21 26 C-22.65 26 -24.3 26 -26 26 C-21.86224387 21.06749193 -17.56631727 16.41140689 -13 11.875 C-12.40960938 11.28074219 -11.81921875 10.68648437 -11.2109375 10.07421875 C-7.62639093 6.49756765 -3.93901813 3.18243843 0 0 Z " fill="#C56649" transform="translate(84,87)"/>
<path d="M0 0 C3.68802044 1.22934015 4.72356973 2.93859378 7 6 C7 5.34 7 4.68 7 4 C9.4375 4.8125 9.4375 4.8125 12 6 C13 9 13 9 13 12 C14.31266518 13.35368596 15.64567325 14.68799596 17 16 C17 16.66 17 17.32 17 18 C17.66 18 18.32 18 19 18 C19.33 17.01 19.66 16.02 20 15 C20.33 17.31 20.66 19.62 21 22 C17.66981201 20.55217309 15.50104958 18.73557065 12.9609375 16.15625 C11.84332031 15.02896484 11.84332031 15.02896484 10.703125 13.87890625 C9.93484375 13.09386719 9.1665625 12.30882812 8.375 11.5 C7.59898437 10.71496094 6.82296875 9.92992187 6.0234375 9.12109375 C4.58805221 7.66826454 3.15472778 6.21339433 1.72412109 4.75585938 C0.48886781 3.49786708 -0.75332537 2.24667463 -2 1 C-1.34 0.67 -0.68 0.34 0 0 Z " fill="#4B3035" transform="translate(233,277)"/>
<path d="M0 0 C2 1 4 2 6 3 C6.33 3.99 6.66 4.98 7 6 C8.77590675 7.00096562 10.55389245 7.99913348 12.35546875 8.953125 C14.45379767 10.28887833 15.06424846 11.73860044 16 14 C16.99 14.33 17.98 14.66 19 15 C20.03789581 16.64333504 21.03567924 18.31243867 22 20 C23.58245275 21.75149165 23.58245275 21.75149165 25 23 C20.7333392 21.618055 18.37653107 19.67840213 15.3125 16.4375 C12.46343331 13.30453441 12.46343331 13.30453441 9 11 C9 10.34 9 9.68 9 9 C8.443125 8.773125 7.88625 8.54625 7.3125 8.3125 C4.33840412 6.62449964 2.27991135 4.53323483 0 2 C0 1.34 0 0.68 0 0 Z " fill="#442D32" transform="translate(289,187)"/>
<path d="M0 0 C0.33 0 0.66 0 1 0 C1 18.81 1 37.62 1 57 C0.01 57 -0.98 57 -2 57 C-2.33 56.34 -2.66 55.68 -3 55 C-2.01 55 -1.02 55 0 55 C0 36.85 0 18.7 0 0 Z " fill="#CC613D" transform="translate(137,240)"/>
<path d="M0 0 C0.66 0.33 1.32 0.66 2 1 C-1.74411154 5.44545808 -5.36369744 9.45459216 -10 13 C-10.33 13.66 -10.66 14.32 -11 15 C-11.99 15.33 -12.98 15.66 -14 16 C-14.33 17.65 -14.66 19.3 -15 21 C-14.34 21.33 -13.68 21.66 -13 22 C-14.32 21.67 -15.64 21.34 -17 21 C-17.8125 19.3359375 -17.8125 19.3359375 -18 17 C-16.38928708 14.98050766 -14.87817484 13.36176496 -13 11.625 C-12.49686279 11.14184326 -11.99372559 10.65868652 -11.4753418 10.16088867 C-7.77022146 6.63121476 -3.95291516 3.25017469 0 0 Z " fill="#452D32" transform="translate(136,149)"/>
<path d="M0 0 C2.5 1.375 2.5 1.375 5 3 C5 3.66 5 4.32 5 5 C5.556875 5.226875 6.11375 5.45375 6.6875 5.6875 C9.64176591 7.36424552 11.66847851 9.54576685 14 12 C14.66 12.66 15.32 13.32 16 14 C16.99 14 17.98 14 19 14 C18.67 14.99 18.34 15.98 18 17 C18.87483915 19.16715557 18.87483915 19.16715557 20 21 C15.09312847 17.0060348 10.55729437 12.6959047 6.0625 8.25 C5.47057861 7.67096924 4.87865723 7.09193848 4.26879883 6.49536133 C2.80590875 5.03589071 1.39785485 3.52187506 0 2 C0 1.34 0 0.68 0 0 Z " fill="#452D30" transform="translate(202,248)"/>
<path d="M0 0 C0.66 0.33 1.32 0.66 2 1 C2 1.66 2 2.32 2 3 C1.34 3 0.68 3 0 3 C0 3.99 0 4.98 0 6 C-0.97850195 7.02104551 -1.97980427 8.0206121 -3 9 C-3.33 9.99 -3.66 10.98 -4 12 C-5.84765625 12.94921875 -5.84765625 12.94921875 -8.0625 13.6875 C-9.16271484 14.06455078 -9.16271484 14.06455078 -10.28515625 14.44921875 C-10.85105469 14.63097656 -11.41695312 14.81273438 -12 15 C-12 12 -12 12 -10.390625 10.3515625 C-9.68421875 9.78179687 -8.9778125 9.21203125 -8.25 8.625 C-5.08123913 5.97874757 -2.44172388 3.35737034 0 0 Z " fill="#C86747" transform="translate(56,113)"/>
<path d="M0 0 C5.24284116 4.3690343 10.51941304 8.83277764 15 14 C15 14.66 15 15.32 15 16 C12 16 12 16 10.4375 14.5625 C9.963125 14.046875 9.48875 13.53125 9 13 C8.34 12.67 7.68 12.34 7 12 C6.67 11.01 6.34 10.02 6 9 C5.01 8.67 4.02 8.34 3 8 C1.76132839 5.38502661 0.91496017 2.74488051 0 0 Z " fill="#C0684F" transform="translate(121,215)"/>
<path d="M0 0 C0.66 0.66 1.32 1.32 2 2 C-13.03030303 17.34343434 -13.03030303 17.34343434 -18 19 C-17.67 17.68 -17.34 16.36 -17 15 C-16.34 15 -15.68 15 -15 15 C-12.51180851 12.64276596 -10.16740266 10.17696853 -7.8125 7.6875 C-6 6 -6 6 -4 6 C-4 5.34 -4 4.68 -4 4 C-2.70766393 2.62689293 -1.37562854 1.28965176 0 0 Z " fill="#432B31" transform="translate(366,195)"/>
<path d="M0 0 C-0.125 1.75 -0.125 1.75 -1 4 C-2.4261601 4.93958783 -3.8542188 5.87646859 -5.29345703 6.79589844 C-8.31812424 8.93004131 -10.80658355 11.59914055 -13.375 14.25 C-13.92027344 14.80429688 -14.46554688 15.35859375 -15.02734375 15.9296875 C-16.35622977 17.28188731 -17.67878548 18.6403035 -19 20 C-19.66 19.67 -20.32 19.34 -21 19 C-17.88307091 15.82530062 -14.75516454 12.66164608 -11.625 9.5 C-10.73554687 8.59378906 -9.84609375 7.68757813 -8.9296875 6.75390625 C-8.07890625 5.89667969 -7.228125 5.03945312 -6.3515625 4.15625 C-5.17327881 2.96225586 -5.17327881 2.96225586 -3.97119141 1.74414062 C-2 0 -2 0 0 0 Z " fill="#B66953" transform="translate(106,67)"/>
<path d="M0 0 C2.86001033 1.28207359 5.07039412 2.49151236 7 5 C7 9 7 9 5.5390625 10.703125 C4.90742188 11.21359375 4.27578125 11.7240625 3.625 12.25 C2.99851562 12.77078125 2.37203125 13.2915625 1.7265625 13.828125 C0 15 0 15 -2 15 C-2 14.34 -2 13.68 -2 13 C-1.34 13 -0.68 13 0 13 C0 12.34 0 11.68 0 11 C0.66 11 1.32 11 2 11 C3.22419811 7.32740566 2.54143712 6.42541582 1 3 C0.67 2.01 0.34 1.02 0 0 Z " fill="#422B30" transform="translate(392,161)"/>
<path d="M0 0 C1.32 0.33 2.64 0.66 4 1 C-5.65517241 12.82758621 -5.65517241 12.82758621 -12 16 C-12 15.01 -12 14.02 -12 13 C-11.01 12.34 -10.02 11.68 -9 11 C-8.67 10.01 -8.34 9.02 -8 8 C-6.0625 6.875 -6.0625 6.875 -4 6 C-3.34 5.67 -2.68 5.34 -2 5 C-2 4.34 -2 3.68 -2 3 C-1.34 3 -0.68 3 0 3 C0 2.01 0 1.02 0 0 Z " fill="#C45C42" transform="translate(124,112)"/>
<path d="M0 0 C4.66666667 4.66666667 9.33333333 9.33333333 14 14 C10.05957221 14 8.91141781 12.53815912 6 10 C4 8 4 8 2.125 5.8125 C1.42375 5.214375 0.7225 4.61625 0 4 C-2.21858253 4.13641377 -2.21858253 4.13641377 -4 5 C-2.68 3.35 -1.36 1.7 0 0 Z " fill="#432E32" transform="translate(337,102)"/>
<path d="M0 0 C2.99249827 1.34513145 5.09745061 2.84118659 7.41796875 5.15234375 C8.33932617 6.06983398 8.33932617 6.06983398 9.27929688 7.00585938 C10.22385742 7.96202148 10.22385742 7.96202148 11.1875 8.9375 C11.82880859 9.57107422 12.47011719 10.20464844 13.13085938 10.85742188 C13.74123047 11.47037109 14.35160156 12.08332031 14.98046875 12.71484375 C15.53629639 13.27292725 16.09212402 13.83101074 16.66479492 14.40600586 C18 16 18 16 19 19 C17 19 17 19 14.6875 16.875 C12.00371184 14.0039708 9.51542911 11.01851494 7 8 C6.113125 7.113125 5.22625 6.22625 4.3125 5.3125 C2 3 2 3 0 0 Z " fill="#432E32" transform="translate(360,128)"/>
<path d="M0 0 C-3.63 3.63 -7.26 7.26 -11 11 C-11.66 10.01 -12.32 9.02 -13 8 C-11.35 7.34 -9.7 6.68 -8 6 C-8 5.34 -8 4.68 -8 4 C-8.66 3.67 -9.32 3.34 -10 3 C-8.35 3 -6.7 3 -5 3 C-5.33 2.01 -5.66 1.02 -6 0 C-4 -1 -4 -1 0 0 Z " fill="#C55C3F" transform="translate(96,144)"/>
<path d="M0 0 C0.99 0.33 1.98 0.66 3 1 C-0.9419417 5.88049925 -5.11950075 10.0580583 -10 14 C-9.40114059 10.6989701 -8.30314403 8.78574977 -6.125 6.25 C-5.61195312 5.63640625 -5.09890625 5.0228125 -4.5703125 4.390625 C-3 3 -3 3 0 3 C0 2.01 0 1.02 0 0 Z " fill="#C05F44" transform="translate(108,128)"/>
<path d="M0 0 C0.804375 1.051875 0.804375 1.051875 1.625 2.125 C3.43620867 4.31751576 5.21489986 6.22473754 7.25 8.1875 C10 11 10 11 10 13 C6.60140297 11.53033642 4.35036291 9.61962486 1.75 7 C1.04359375 6.29875 0.3371875 5.5975 -0.390625 4.875 C-2 3 -2 3 -2 1 C-1.34 0.67 -0.68 0.34 0 0 Z " fill="#462E31" transform="translate(181,225)"/>
<path d="M0 0 C0.33 0.66 0.66 1.32 1 2 C-4.33333333 7.33333333 -9.66666667 12.66666667 -15 18 C-15 15 -15 15 -13.62304688 13.2824707 C-12.99462891 12.66976318 -12.36621094 12.05705566 -11.71875 11.42578125 C-11.04199219 10.75869141 -10.36523438 10.09160156 -9.66796875 9.40429688 C-8.95253906 8.71400391 -8.23710938 8.02371094 -7.5 7.3125 C-6.42685547 6.2596582 -6.42685547 6.2596582 -5.33203125 5.18554688 C-3.56120423 3.45013639 -1.78376544 1.7220927 0 0 Z " fill="#AD664D" transform="translate(129,43)"/>
<path d="M0 0 C0.66 0 1.32 0 2 0 C0.51272258 4.90801549 -2.44635485 8.40491293 -6 12 C-6.33 12 -6.66 12 -7 12 C-7 10.02 -7 8.04 -7 6 C-5.68 6.33 -4.36 6.66 -3 7 C-3 6.01 -3 5.02 -3 4 C-2.34 3.67 -1.68 3.34 -1 3 C-0.67 2.01 -0.34 1.02 0 0 Z " fill="#BA5F43" transform="translate(135,101)"/>
<path d="M0 0 C3.70884034 1.68731857 6.3277096 3.9377132 9.31640625 6.66015625 C11.07218444 8.21478916 11.07218444 8.21478916 14 9 C13.67 9.66 13.34 10.32 13 11 C8.91918237 10.47585829 7.04739336 8.38881144 4.25 5.5 C3.45078125 4.6853125 2.6515625 3.870625 1.828125 3.03125 C0 1 0 1 0 0 Z " fill="#442B30" transform="translate(273,173)"/>
<path d="M0 0 C0.66 0.66 1.32 1.32 2 2 C1.21625 2.598125 0.4325 3.19625 -0.375 3.8125 C-3.14574323 5.91085249 -3.14574323 5.91085249 -5 9 C-8.125 10.1875 -8.125 10.1875 -11 11 C-10.07038578 9.84775972 -9.1309875 8.70340824 -8.1875 7.5625 C-7.40439453 6.60537109 -7.40439453 6.60537109 -6.60546875 5.62890625 C-5 4 -5 4 -2 3 C-2 2.34 -2 1.68 -2 1 C-1.34 0.67 -0.68 0.34 0 0 Z " fill="#4E383D" transform="translate(226,62)"/>
<path d="M0 0 C-0.66 1.98 -1.32 3.96 -2 6 C-2.99 6 -3.98 6 -5 6 C-7.67398476 7.93897879 -7.67398476 7.93897879 -10 10 C-10.66 9.67 -11.32 9.34 -12 9 C-10.89902432 7.87187697 -9.79408444 6.74762189 -8.6875 5.625 C-8.07261719 4.99851563 -7.45773438 4.37203125 -6.82421875 3.7265625 C-2.88687783 0 -2.88687783 0 0 0 Z " fill="#D25F36" transform="translate(48,126)"/>
<path d="M0 0 C0.33 0.66 0.66 1.32 1 2 C0.06553465 4.03144641 -0.93224776 6.03533587 -2 8 C-2.99 8 -3.98 8 -5 8 C-5.33 8.66 -5.66 9.32 -6 10 C-7.32 9.67 -8.64 9.34 -10 9 C-9.44570313 8.51789063 -8.89140625 8.03578125 -8.3203125 7.5390625 C-7.59585937 6.90742187 -6.87140625 6.27578125 -6.125 5.625 C-5.40570313 4.99851562 -4.68640625 4.37203125 -3.9453125 3.7265625 C-2.5923402 2.52573166 -1.2791655 1.2791655 0 0 Z " fill="#4D353A" transform="translate(327,111)"/>
<path d="M0 0 C2 0 2 0 4.125 1.875 C6 4 6 4 6 6 C6.66 6 7.32 6 8 6 C8.33 5.01 8.66 4.02 9 3 C9.33 5.31 9.66 7.62 10 10 C5.86360664 8.40907948 2.76786752 5.39525082 0 2 C0 1.34 0 0.68 0 0 Z " fill="#3C2A2E" transform="translate(244,289)"/>
<path d="M0 0 C2.625 -0.1875 2.625 -0.1875 5 0 C4.04882866 1.1725131 3.08882991 2.33787015 2.125 3.5 C1.59132813 4.1496875 1.05765625 4.799375 0.5078125 5.46875 C0.01023437 5.9740625 -0.48734375 6.479375 -1 7 C-1.66 7 -2.32 7 -3 7 C-2.38722388 4.03824877 -1.74627478 2.61941217 0 0 Z " fill="#472D32" transform="translate(372,188)"/>
<path d="M0 0 C0.33 1.32 0.66 2.64 1 4 C-0.65 4.66 -2.3 5.32 -4 6 C-4 6.66 -4 7.32 -4 8 C-4.99 8 -5.98 8 -7 8 C-6.67 6.35 -6.34 4.7 -6 3 C-5.38125 2.87625 -4.7625 2.7525 -4.125 2.625 C-1.80879168 2.12802644 -1.80879168 2.12802644 0 0 Z " fill="#D45C36" transform="translate(136,39)"/>
<path d="M0 0 C1.98 1.65 3.96 3.3 6 5 C2.94736336 5.98120464 1.05263664 5.98120464 -2 5 C-1.34 3.35 -0.68 1.7 0 0 Z " fill="#CE5C3C" transform="translate(90,186)"/>
<path d="M0 0 C0.33 0.66 0.66 1.32 1 2 C-0.0625 4.5625 -0.0625 4.5625 -2 7 C-5.1875 7.8125 -5.1875 7.8125 -8 8 C-3.375 2.25 -3.375 2.25 0 0 Z " fill="#C66043" transform="translate(22,148)"/>
<path d="M0 0 C0 0.99 0 1.98 0 3 C-1.32 3.33 -2.64 3.66 -4 4 C-4 4.66 -4 5.32 -4 6 C-5.375 7.625 -5.375 7.625 -7 9 C-7.66 9 -8.32 9 -9 9 C-8.8125 7.1875 -8.8125 7.1875 -8 5 C-5.625 3.375 -5.625 3.375 -3 2 C-2.01 1.34 -1.02 0.68 0 0 Z " fill="#CA573E" transform="translate(116,58)"/>
<path d="M0 0 C0.66 0 1.32 0 2 0 C2 0.66 2 1.32 2 2 C3.32 2 4.64 2 6 2 C8.25 5 8.25 5 10 8 C9.67 8.66 9.34 9.32 9 10 C7.49410612 8.71520959 5.99542625 7.42195918 4.5 6.125 C3.6646875 5.40570313 2.829375 4.68640625 1.96875 3.9453125 C1.3190625 3.30335938 0.669375 2.66140625 0 2 C0 1.34 0 0.68 0 0 Z " fill="#BC6049" transform="translate(124,285)"/>
<path d="M0 0 C1.31896465 0.92838287 2.62998689 1.86805732 3.9375 2.8125 C4.66839844 3.33457031 5.39929688 3.85664063 6.15234375 4.39453125 C8 6 8 6 9 9 C7.66666667 8.33333333 6.33333333 7.66666667 5 7 C3.9171875 6.5978125 3.9171875 6.5978125 2.8125 6.1875 C1 5 1 5 0.25 2.375 C0.1675 1.59125 0.085 0.8075 0 0 Z " fill="#BC5B43" transform="translate(111,206)"/>
<path d="M0 0 C0.99 0 1.98 0 3 0 C3.33 1.32 3.66 2.64 4 4 C4.66 2.68 5.32 1.36 6 0 C6 2.31 6 4.62 6 7 C5.01 7 4.02 7 3 7 C0.64276511 4.46815512 0 3.52809907 0 0 Z " fill="#D65B36" transform="translate(131,288)"/>
<path d="M0 0 C0.33 0 0.66 0 1 0 C1 5.61 1 11.22 1 17 C0.01 17 -0.98 17 -2 17 C-2.33 16.34 -2.66 15.68 -3 15 C-2.01 15 -1.02 15 0 15 C0 10.05 0 5.1 0 0 Z " fill="#B75B41" transform="translate(137,280)"/>
<path d="M0 0 C0.66 0.66 1.32 1.32 2 2 C1.67 2.99 1.34 3.98 1 5 C1.33 5.66 1.66 6.32 2 7 C-0.4375 6.1875 -0.4375 6.1875 -3 5 C-3.33 4.01 -3.66 3.02 -4 2 C-2.68 1.34 -1.36 0.68 0 0 Z " fill="#482C33" transform="translate(271,165)"/>
<path d="M0 0 C5.875 3.75 5.875 3.75 7 6 C4.03 5.505 4.03 5.505 1 5 C0.67 3.35 0.34 1.7 0 0 Z " fill="#BB624B" transform="translate(96,192)"/>
<path d="M0 0 C3.67420866 0.30618405 4.78135513 0.75771784 7.3125 3.5625 C8.1478125 4.7690625 8.1478125 4.7690625 9 6 C7.68 6 6.36 6 5 6 C4.87625 5.071875 4.87625 5.071875 4.75 4.125 C4.18741541 1.81562433 4.18741541 1.81562433 1.9375 0.75 C1.298125 0.5025 0.65875 0.255 0 0 Z " fill="#4B363A" transform="translate(348,117)"/>
<path d="M0 0 C0 4.0333534 -1.60879918 5.83517538 -4 9 C-4.66 9 -5.32 9 -6 9 C-6 8.34 -6 7.68 -6 7 C-5.34 7 -4.68 7 -4 7 C-3.896875 6.21625 -3.79375 5.4325 -3.6875 4.625 C-3 2 -3 2 0 0 Z " fill="#D75D38" transform="translate(88,85)"/>
<path d="M0 0 C0.99 0.33 1.98 0.66 3 1 C2.505 1.5775 2.01 2.155 1.5 2.75 C-0.36980013 5.10400629 -0.36980013 5.10400629 0 9 C-0.66 9 -1.32 9 -2 9 C-2 7.02 -2 5.04 -2 3 C-1.34 3 -0.68 3 0 3 C0 2.01 0 1.02 0 0 Z " fill="#BA5F46" transform="translate(74,161)"/>
<path d="M0 0 C1.98 0 3.96 0 6 0 C4.68 1.65 3.36 3.3 2 5 C1.01 4.67 0.02 4.34 -1 4 C-0.34 4 0.32 4 1 4 C0.67 2.68 0.34 1.36 0 0 Z " fill="#C2644A" transform="translate(78,155)"/>
<path d="M0 0 C0.66 0.33 1.32 0.66 2 1 C-0.46153846 5.8 -0.46153846 5.8 -3.1875 6.8125 C-3.785625 6.874375 -4.38375 6.93625 -5 7 C-5 6.01 -5 5.02 -5 4 C-2.5 1.8125 -2.5 1.8125 0 0 Z " fill="#D55D36" transform="translate(28,143)"/>
<path d="M0 0 C0.33 0.66 0.66 1.32 1 2 C0.67 2.99 0.34 3.98 0 5 C-3.5625 6.1875 -3.5625 6.1875 -7 7 C-4.66666667 4.66666667 -2.33333333 2.33333333 0 0 Z " fill="#B7684F" transform="translate(84,87)"/>
<path d="M0 0 C1.65 0 3.3 0 5 0 C5.66 1.98 6.32 3.96 7 6 C3.63279613 4.60667426 2.0140476 3.0210714 0 0 Z " fill="#D95E3A" transform="translate(74,235)"/>
<path d="M0 0 C2.04119788 1.61594832 4.04072937 3.2856382 6 5 C6 5.66 6 6.32 6 7 C5.01 7 4.02 7 3 7 C0 2.77777778 0 2.77777778 0 0 Z " fill="#BB764E" transform="translate(130,224)"/>
<path d="M0 0 C2 3 2 3 3 6 C1.68 5.67 0.36 5.34 -1 5 C-1.33 3.68 -1.66 2.36 -2 1 C-1.34 0.67 -0.68 0.34 0 0 Z " fill="#C55E3F" transform="translate(60,219)"/>
<path d="M0 0 C2.97 0.495 2.97 0.495 6 1 C6 2.65 6 4.3 6 6 C3.97945196 4.35830472 1.97956942 2.69088222 0 1 C0 0.67 0 0.34 0 0 Z " fill="#D75C35" transform="translate(48,210)"/>
<path d="M0 0 C0.928125 0.2784375 0.928125 0.2784375 1.875 0.5625 C4.04160178 1.23686176 4.04160178 1.23686176 6 0 C5.1875 1.9375 5.1875 1.9375 4 4 C3.01 4.33 2.02 4.66 1 5 C0.67 3.35 0.34 1.7 0 0 Z " fill="#452A2F" transform="translate(379,180)"/>
<path d="M0 0 C0.99 0.66 1.98 1.32 3 2 C2.34 3.65 1.68 5.3 1 7 C-0.32 5.35 -1.64 3.7 -3 2 C-2.01 2 -1.02 2 0 2 C0 1.34 0 0.68 0 0 Z " fill="#42272B" transform="translate(132,176)"/>
<path d="M0 0 C1 3 1 3 0 6 C-1.32 5.34 -2.64 4.68 -4 4 C-3.67 3.01 -3.34 2.02 -3 1 C-2.01 0.67 -1.02 0.34 0 0 Z " fill="#D35836" transform="translate(78,156)"/>
<path d="M0 0 C0.66 0.66 1.32 1.32 2 2 C0 4 0 4 -3 6 C-3.33 4.68 -3.66 3.36 -4 2 C-2.68 1.34 -1.36 0.68 0 0 Z " fill="#482C32" transform="translate(301,137)"/>
</svg>
